<svg width="1600" height="1320" viewBox="0 0 1600 1320" fill="none" xmlns="http://www.w3.org/2000/svg" role="img" aria-labelledby="title desc">
  <title id="title">Dog and cat family resting together</title>
  <desc id="desc">A calm, warm home scene with a dog and cat together on a soft sofa.</desc>
  <defs>
    <linearGradient id="bg" x1="200" y1="80" x2="1380" y2="1220" gradientUnits="userSpaceOnUse">
      <stop stop-color="#F8F5ED"/>
      <stop offset="1" stop-color="#E8E0D1"/>
    </linearGradient>
    <linearGradient id="window" x1="280" y1="160" x2="840" y2="600" gradientUnits="userSpaceOnUse">
      <stop stop-color="#DCE8D7"/>
      <stop offset="1" stop-color="#F4EFE2" stop-opacity="0"/>
    </linearGradient>
    <linearGradient id="dog" x1="610" y1="400" x2="900" y2="900" gradientUnits="userSpaceOnUse">
      <stop stop-color="#D8B28A"/>
      <stop offset="1" stop-color="#B88458"/>
    </linearGradient>
    <linearGradient id="cat" x1="900" y1="430" x2="1180" y2="920" gradientUnits="userSpaceOnUse">
      <stop stop-color="#E8D6BF"/>
      <stop offset="1" stop-color="#C4A783"/>
    </linearGradient>
    <linearGradient id="sofa" x1="200" y1="820" x2="1440" y2="1120" gradientUnits="userSpaceOnUse">
      <stop stop-color="#D2DDCB"/>
      <stop offset="1" stop-color="#B8C7B0"/>
    </linearGradient>
    <filter id="shadow" x="160" y="130" width="1280" height="1080" filterUnits="userSpaceOnUse">
      <feDropShadow dx="0" dy="28" stdDeviation="35" flood-color="#2D3A2F" flood-opacity="0.15"/>
    </filter>
  </defs>
  <rect width="1600" height="1320" rx="88" fill="url(#bg)"/>
  <circle cx="318" cy="252" r="198" fill="url(#window)" opacity="0.82"/>
  <circle cx="1288" cy="248" r="166" fill="#D5DCCF" opacity="0.5"/>
  <g filter="url(#shadow)">
    <path d="M244 890C244 846.36 279.359 811 323 811H1278C1321.64 811 1357 846.36 1357 890V1010C1357 1045.2 1328.2 1074 1293 1074H308C272.805 1074 244 1045.2 244 1010V890Z" fill="url(#sofa)"/>
    <path d="M284 862C284 846.536 296.536 834 312 834H1280C1295.46 834 1308 846.536 1308 862V910H284V862Z" fill="#AEBCA5"/>
    <path d="M380 942C380 914.386 402.386 892 430 892H1170C1197.61 892 1220 914.386 1220 942V1074H380V942Z" fill="#C8D3BE"/>
  </g>

  <g transform="translate(452 320)">
    <ellipse cx="304" cy="628" rx="290" ry="28" fill="#B08C6B" opacity="0.18"/>
    <path d="M152 492C152 395.814 228.814 318 324 318H392C487.186 318 564 395.814 564 492V607C564 638.304 538.304 664 507 664H209C177.696 664 152 638.304 152 607V492Z" fill="#F7F1E7"/>
    <path d="M235 458C235 377.752 299.752 313 380 313H415C495.248 313 560 377.752 560 458V585C560 620.689 531.689 649 496 649H299C263.311 649 235 620.689 235 585V458Z" fill="url(#dog)"/>
    <path d="M258 389 214 340C205 330 206 314 218 307L275 274C287 267 302 274 304 288L314 358Z" fill="#C89464"/>
    <path d="M552 389 594 340C603 330 602 314 590 307L533 274C521 267 506 274 504 288L494 358Z" fill="#C89464"/>
    <circle cx="322" cy="486" r="16" fill="#2C1C13"/>
    <circle cx="439" cy="486" r="16" fill="#2C1C13"/>
    <path d="M373 512C363 525 349 532 333 532" stroke="#5B3826" stroke-width="10" stroke-linecap="round"/>
    <path d="M367 540C375 548 387 552 398 552" stroke="#5B3826" stroke-width="10" stroke-linecap="round"/>
    <circle cx="381" cy="522" r="23" fill="#F3E1D0"/>
    <path d="M334 571C345 588 360 597 380 597C399 597 415 588 426 571" stroke="#8E5A3E" stroke-width="10" stroke-linecap="round"/>
  </g>

  <g transform="translate(732 364)">
    <ellipse cx="280" cy="584" rx="236" ry="24" fill="#8D7255" opacity="0.16"/>
    <path d="M141 388C141 329.621 188.621 282 247 282H315C373.379 282 421 329.621 421 388V546C421 571.405 400.405 592 375 592H187C161.595 592 141 571.405 141 546V388Z" fill="#F7F1E7"/>
    <path d="M196 322 162 286C151 274 152 255 166 247L210 221C224 213 240 220 242 235L247 301Z" fill="#D9C5AE"/>
    <path d="M372 322 407 286C418 274 417 255 403 247L359 221C345 213 329 220 327 235L322 301Z" fill="#D9C5AE"/>
    <path d="M209 362C209 314.486 247.486 276 295 276H320C367.514 276 406 314.486 406 362V498C406 523.405 385.405 544 360 544H255C229.595 544 209 523.405 209 498V362Z" fill="url(#cat)"/>
    <circle cx="267" cy="421" r="13" fill="#332118"/>
    <circle cx="328" cy="421" r="13" fill="#332118"/>
    <path d="M287 452C296 460 305 463 315 463C325 463 334 460 343 452" stroke="#6D4B2E" stroke-width="8" stroke-linecap="round"/>
    <path d="M310 440C311 442 313 444 315 444C317 444 319 442 320 440" stroke="#6D4B2E" stroke-width="8" stroke-linecap="round"/>
    <path d="M302 489C307 499 312 504 315 504C318 504 323 499 328 489" stroke="#6D4B2E" stroke-width="8" stroke-linecap="round"/>
  </g>

  <g opacity="0.75">
    <rect x="1160" y="146" width="158" height="86" rx="26" fill="#FFFFFF" fill-opacity="0.55"/>
    <rect x="1200" y="176" width="72" height="10" rx="5" fill="#628766"/>
    <rect x="1200" y="196" width="98" height="10" rx="5" fill="#91A892"/>
  </g>

  <circle cx="1360" cy="372" r="16" fill="#8FB793" opacity="0.7"/>
  <circle cx="1410" cy="438" r="10" fill="#B7C8B7" opacity="0.8"/>
  <circle cx="153" cy="1038" r="22" fill="#FFFFFF" opacity="0.35"/>
  <circle cx="194" cy="1000" r="10" fill="#FFFFFF" opacity="0.45"/>
</svg>
